<svg width="48" height="49" viewBox="0 0 48 49" fill="none" xmlns="http://www.w3.org/2000/svg">
<rect y="0.5" width="48" height="48" rx="24" fill="#FF6D00"/>
<path d="M33.6455 34.1459C32.4662 35.3252 30.3568 35.6624 27.6095 34.8544C24.9035 34.0586 21.8237 32.204 19.0599 29.4402C16.296 26.6765 14.4414 23.5968 13.6456 20.8909C12.8376 18.1437 13.1748 16.0343 14.3541 14.855C15.5334 13.6758 17.6428 13.3386 20.3901 14.1466C23.096 14.9424 26.1758 16.797 28.9396 19.5607C31.7035 22.3245 33.5581 25.4042 34.354 28.1101C35.162 30.8573 34.8248 32.9667 33.6455 34.1459Z" stroke="white" stroke-width="2"/>
<path d="M14.3545 34.1449C13.1752 32.9656 12.838 30.8562 13.646 28.109C14.4419 25.4031 16.2965 22.3234 19.0603 19.5597C21.8242 16.7959 24.9039 14.9413 27.6099 14.1455C30.3572 13.3375 32.4666 13.6747 33.6459 14.854C34.8252 16.0332 35.1624 18.1426 34.3544 20.8898C33.5585 23.5957 31.7039 26.6754 28.9401 29.4392C26.1762 32.2029 23.0965 34.0575 20.3905 34.8533C17.6432 35.6613 15.5338 35.3241 14.3545 34.1449Z" stroke="white" stroke-width="2"/>
<circle cx="24" cy="24.5" r="2" fill="white"/>
</svg>
