<svg width="19" height="18" viewBox="0 0 19 18" fill="none" xmlns="http://www.w3.org/2000/svg">
<path d="M17.5556 0.943117C16.9517 0.339288 16.1327 6.10352e-05 15.2788 6.10352e-05C14.4248 6.10352e-05 13.6058 0.339288 13.002 0.943117L2.24616 11.6989C1.88061 12.0644 1.6236 12.5242 1.50373 13.0271L0.518318 17.1685C0.491637 17.2807 0.494139 17.3978 0.525585 17.5088C0.55703 17.6197 0.616372 17.7207 0.697949 17.8022C0.779527 17.8837 0.88062 17.9429 0.991588 17.9742C1.10256 18.0056 1.2197 18.0079 1.33184 17.9811L5.47236 16.9948C5.97559 16.8751 6.43572 16.6181 6.80154 16.2524L17.5556 5.49847C18.1594 4.89462 18.4986 4.07564 18.4986 3.22169C18.4986 2.36774 18.1594 1.54876 17.5556 0.944917V0.943117ZM13.9559 1.89702C14.1296 1.7233 14.3358 1.5855 14.5628 1.49148C14.7898 1.39746 15.0331 1.34907 15.2788 1.34907C15.5244 1.34907 15.7677 1.39746 15.9947 1.49148C16.2217 1.5855 16.4279 1.7233 16.6016 1.89702C16.7754 2.07074 16.9132 2.27698 17.0072 2.50396C17.1012 2.73094 17.1496 2.97421 17.1496 3.21989C17.1496 3.46557 17.1012 3.70884 17.0072 3.93582C16.9132 4.1628 16.7754 4.36904 16.6016 4.54276L15.7989 5.34458L13.1532 2.69974L13.9559 1.89702ZM12.1992 3.65545L14.845 6.29939L5.84583 15.2985C5.65685 15.4875 5.41927 15.6198 5.15919 15.6819L2.08507 16.4144L2.81671 13.3403C2.8788 13.0793 3.01199 12.8417 3.20097 12.6528L12.1992 3.65365V3.65545Z" fill="black" fill-opacity="0.8"/>
</svg>
